<svg width="31" height="31" viewBox="0 0 31 31" fill="none" xmlns="http://www.w3.org/2000/svg">
<path fill-rule="evenodd" clip-rule="evenodd" d="M24.25 18.875C24.9404 18.875 25.5 19.4346 25.5 20.125V22.625H28C28.6904 22.625 29.25 23.1846 29.25 23.875C29.25 24.5654 28.6904 25.125 28 25.125H25.5V27.625C25.5 28.3154 24.9404 28.875 24.25 28.875C23.5596 28.875 23 28.3154 23 27.625V25.125H20.5C19.8096 25.125 19.25 24.5654 19.25 23.875C19.25 23.1846 19.8096 22.625 20.5 22.625H23V20.125C23 19.4346 23.5596 18.875 24.25 18.875Z" fill="url(#paint0_linear_2306_47)"/>
<path d="M8 18.875C8 18.1846 8.55964 17.625 9.25 17.625H14.25C14.9404 17.625 15.5 18.1846 15.5 18.875V18.875C15.5 19.5654 14.9404 20.125 14.25 20.125H9.25C8.55964 20.125 8 19.5654 8 18.875V18.875Z" fill="url(#paint1_linear_2306_47)"/>
<path d="M3 11.375H28V13.875H3V11.375Z" fill="url(#paint2_linear_2306_47)"/>
<path fill-rule="evenodd" clip-rule="evenodd" d="M10.1984 5.125H20.8016C21.8078 5.12498 22.6383 5.12497 23.3148 5.18024C24.0174 5.23765 24.6633 5.36086 25.27 5.66997C26.2108 6.14934 26.9757 6.91424 27.455 7.85505C27.7641 8.46172 27.8874 9.1076 27.9448 9.81022C28 10.4867 28 11.3171 28 12.3233V15.125C28 15.8154 27.4404 16.375 26.75 16.375C26.0596 16.375 25.5 15.8154 25.5 15.125V12.375C25.5 11.3043 25.499 10.5764 25.4531 10.0138C25.4083 9.46578 25.3271 9.18552 25.2275 8.99003C24.9878 8.51962 24.6054 8.13717 24.135 7.89748C23.9395 7.79787 23.6592 7.71672 23.1112 7.67194C22.5486 7.62597 21.8207 7.625 20.75 7.625H10.25C9.17928 7.625 8.45141 7.62597 7.8888 7.67194C7.34078 7.71672 7.06052 7.79787 6.86503 7.89748C6.39462 8.13717 6.01217 8.51962 5.77248 8.99003C5.67287 9.18552 5.59172 9.46578 5.54694 10.0138C5.50097 10.5764 5.5 11.3043 5.5 12.375V17.875C5.5 18.9457 5.50097 19.6736 5.54694 20.2362C5.59172 20.7842 5.67287 21.0645 5.77248 21.26C6.01217 21.7304 6.39462 22.1128 6.86503 22.3525C7.06052 22.4521 7.34078 22.5333 7.8888 22.5781C8.45141 22.624 9.17928 22.625 10.25 22.625H15.5C16.1904 22.625 16.75 23.1846 16.75 23.875C16.75 24.5654 16.1904 25.125 15.5 25.125H10.1984C9.19218 25.125 8.36172 25.125 7.68522 25.0698C6.9826 25.0124 6.33672 24.8891 5.73005 24.58C4.78924 24.1007 4.02434 23.3358 3.54497 22.395C3.23586 21.7883 3.11265 21.1424 3.05524 20.4398C2.99997 19.7633 2.99998 18.9328 3 17.9266V12.3234C2.99998 11.3172 2.99997 10.4867 3.05524 9.81022C3.11265 9.1076 3.23585 8.46172 3.54497 7.85505C4.02434 6.91424 4.78924 6.14934 5.73005 5.66997C6.33672 5.36086 6.9826 5.23765 7.68522 5.18024C8.36171 5.12497 9.19216 5.12498 10.1984 5.125Z" fill="url(#paint3_linear_2306_47)"/>
<defs>
<linearGradient id="paint0_linear_2306_47" x1="24.25" y1="18.875" x2="24.25" y2="28.875" gradientUnits="userSpaceOnUse">
<stop stop-color="#346CBD"/>
</linearGradient>
<linearGradient id="paint1_linear_2306_47" x1="11.75" y1="17.625" x2="11.75" y2="20.125" gradientUnits="userSpaceOnUse">
<stop stop-color="#346CBD"/>
</linearGradient>
<linearGradient id="paint2_linear_2306_47" x1="15.5" y1="11.375" x2="15.5" y2="13.875" gradientUnits="userSpaceOnUse">
<stop stop-color="#346CBD"/>
</linearGradient>
<linearGradient id="paint3_linear_2306_47" x1="15.5" y1="5.125" x2="15.5" y2="25.125" gradientUnits="userSpaceOnUse">
<stop stop-color="#346CBD"/>
</linearGradient>
</defs>
</svg>
