<svg width="13" height="13" viewBox="0 0 13 13" fill="none" xmlns="http://www.w3.org/2000/svg">
<path fill-rule="evenodd" clip-rule="evenodd" d="M6.5 2.16666C4.10676 2.16666 2.16666 4.10676 2.16666 6.5C2.16666 8.89323 4.10676 10.8333 6.5 10.8333C8.89323 10.8333 10.8333 8.89323 10.8333 6.5C10.8333 4.10676 8.89323 2.16666 6.5 2.16666ZM1.08333 6.5C1.08333 3.50845 3.50845 1.08333 6.5 1.08333C9.49154 1.08333 11.9167 3.50845 11.9167 6.5C11.9167 9.49154 9.49154 11.9167 6.5 11.9167C3.50845 11.9167 1.08333 9.49154 1.08333 6.5Z" fill="#FF9901"/>
<path d="M7.04166 4.33334C7.04166 4.03418 6.79915 3.79167 6.49999 3.79167C6.20084 3.79167 5.95833 4.03418 5.95833 4.33334V6.5C5.95833 6.79916 6.20084 7.04167 6.49999 7.04167C6.79915 7.04167 7.04166 6.79916 7.04166 6.5V4.33334Z" fill="white"/>
<path d="M6.49999 8.125C6.20084 8.125 5.95833 8.36752 5.95833 8.66667C5.95833 8.96583 6.20084 9.20834 6.49999 9.20834C6.79915 9.20834 7.04166 8.96583 7.04166 8.66667C7.04166 8.36752 6.79915 8.125 6.49999 8.125Z" fill="white"/>
<circle cx="6.5" cy="6.5" r="4.5" fill="#FFAC31"/>
<path d="M7.08333 4.54167C7.08333 4.24251 6.84082 4 6.54167 4C6.24251 4 6 4.24251 6 4.54167V6.70833C6 7.00749 6.24251 7.25 6.54167 7.25C6.84082 7.25 7.08333 7.00749 7.08333 6.70833V4.54167Z" fill="white"/>
<path d="M6.54167 8.33333C6.24251 8.33333 6 8.57585 6 8.875C6 9.17415 6.24251 9.41667 6.54167 9.41667C6.84082 9.41667 7.08333 9.17415 7.08333 8.875C7.08333 8.57585 6.84082 8.33333 6.54167 8.33333Z" fill="white"/>
</svg>
