<svg width="27" height="27" viewBox="0 0 27 27" fill="none" xmlns="http://www.w3.org/2000/svg">
<path d="M6.75 16.875C6.75 16.2537 7.25368 15.75 7.875 15.75H12.375C12.9963 15.75 13.5 16.2537 13.5 16.875C13.5 17.4963 12.9963 18 12.375 18H7.875C7.25368 18 6.75 17.4963 6.75 16.875Z" fill="#B4B4B8"/>
<path d="M2.25 10.125H24.75V12.375H2.25V10.125Z" fill="#B4B4B8"/>
<path fill-rule="evenodd" clip-rule="evenodd" d="M8.72854 4.5H18.2715C19.1771 4.49999 19.9245 4.49997 20.5333 4.54972C21.1657 4.60138 21.747 4.71227 22.293 4.99047C23.1397 5.4219 23.8281 6.11031 24.2595 6.95704C24.5377 7.50305 24.6486 8.08434 24.7003 8.7167C24.75 9.32553 24.75 10.0729 24.75 10.9785V16.0215C24.75 16.9271 24.75 17.6745 24.7003 18.2833C24.6486 18.9157 24.5377 19.497 24.2595 20.043C23.8281 20.8897 23.1397 21.5781 22.293 22.0095C21.747 22.2877 21.1657 22.3986 20.5333 22.4503C19.9245 22.5 19.177 22.5 18.2714 22.5H8.72856C7.82296 22.5 7.07555 22.5 6.4667 22.4503C5.83434 22.3986 5.25305 22.2877 4.70704 22.0095C3.86031 21.5781 3.1719 20.8897 2.74047 20.043C2.46227 19.497 2.35138 18.9157 2.29972 18.2833C2.24997 17.6745 2.24999 16.9271 2.25 16.0215V10.9785C2.24999 10.0729 2.24997 9.32554 2.29972 8.7167C2.35138 8.08434 2.46227 7.50305 2.74047 6.95704C3.1719 6.11031 3.86031 5.4219 4.70704 4.99047C5.25305 4.71227 5.83434 4.60138 6.4667 4.54972C7.07554 4.49997 7.82295 4.49999 8.72854 4.5ZM6.64992 6.79225C6.1567 6.83254 5.90447 6.90559 5.72852 6.99524C5.30516 7.21095 4.96095 7.55516 4.74524 7.97852C4.65559 8.15447 4.58254 8.4067 4.54225 8.89992C4.50088 9.40627 4.5 10.0613 4.5 11.025V15.975C4.5 16.9387 4.50088 17.5937 4.54225 18.1001C4.58254 18.5933 4.65559 18.8455 4.74524 19.0215C4.96095 19.4448 5.30516 19.789 5.72852 20.0048C5.90447 20.0944 6.1567 20.1675 6.64992 20.2078C7.15627 20.2491 7.81135 20.25 8.775 20.25H18.225C19.1887 20.25 19.8437 20.2491 20.3501 20.2078C20.8433 20.1675 21.0955 20.0944 21.2715 20.0048C21.6948 19.789 22.039 19.4448 22.2548 19.0215C22.3444 18.8455 22.4175 18.5933 22.4578 18.1001C22.4991 17.5937 22.5 16.9387 22.5 15.975V11.025C22.5 10.0613 22.4991 9.40627 22.4578 8.89992C22.4175 8.4067 22.3444 8.15447 22.2548 7.97852C22.039 7.55516 21.6948 7.21095 21.2715 6.99524C21.0955 6.90559 20.8433 6.83254 20.3501 6.79225C19.8437 6.75088 19.1887 6.75 18.225 6.75H8.775C7.81135 6.75 7.15627 6.75088 6.64992 6.79225Z" fill="#B4B4B8"/>
</svg>
