<svg width="24" height="24" viewBox="0 0 24 24" fill="none" xmlns="http://www.w3.org/2000/svg">
<path d="M17.7936 5.82994C17.6428 5.30433 17.3143 4.84047 16.8589 4.5098C16.4035 4.17913 15.8463 4 15.2733 4H10.6848C10.2305 4.00002 9.7841 4.11267 9.38959 4.32682C8.99508 4.54097 8.66613 4.84923 8.43519 5.22116L6.05164 9.05626L3.97874 9.54943C3.4135 9.68379 2.91172 9.99394 2.55316 10.4306C2.19461 10.8672 1.99987 11.4053 1.99989 11.9592V13.4839C1.99972 13.9564 2.14129 14.4191 2.408 14.8178C2.67471 15.2165 3.05548 15.5346 3.50564 15.7347C3.65982 16.3591 4.02478 16.9184 4.54476 17.327C5.06473 17.7356 5.71111 17.9711 6.38513 17.9975C7.05914 18.0239 7.72372 17.8398 8.27731 17.4733C8.83089 17.1067 9.24303 16.578 9.45074 15.9678H14.024C14.2417 16.6033 14.6808 17.1493 15.2688 17.5156C15.8569 17.8818 16.5588 18.0465 17.2585 17.9822C17.9583 17.918 18.6141 17.6288 19.1176 17.1624C19.6211 16.696 19.9423 16.0802 20.028 15.4168C20.3317 15.1842 20.5767 14.8898 20.7449 14.5553C20.9131 14.2208 21.0002 13.8547 20.9999 13.4839V11.4516C20.9998 10.8442 20.7656 10.2579 20.3417 9.80354C19.9177 9.34917 19.3333 9.05826 18.699 8.98581L17.7936 5.82994ZM9.56379 14.6129C9.4586 13.9673 9.12988 13.3735 8.62968 12.9255C8.12947 12.4775 7.48638 12.201 6.80224 12.1397C6.11809 12.0784 5.432 12.2359 4.85261 12.5872C4.27322 12.9385 3.83364 13.4635 3.60349 14.0791C3.48652 13.9005 3.42464 13.6943 3.42489 13.4839V11.9592C3.42489 11.4408 3.79539 10.9892 4.32454 10.8636L6.60169 10.3226H18.3874C19.0429 10.3226 19.5749 10.8284 19.5749 11.4516V13.4992C19.2398 12.9932 18.7502 12.5964 18.1715 12.3622C17.5928 12.1279 16.9526 12.0673 16.3367 12.1884C15.7207 12.3095 15.1584 12.6066 14.7249 13.0399C14.2914 13.4732 14.0074 14.022 13.911 14.6129H9.56379ZM12.4499 8.96775H7.76259L9.66259 5.90942C9.7676 5.7405 9.9171 5.60051 10.0963 5.50326C10.2756 5.40601 10.4784 5.35486 10.6848 5.35484H12.4499V8.96775ZM13.8749 5.35484H15.2733C15.5338 5.35483 15.7871 5.43625 15.9941 5.58657C16.2011 5.7369 16.3504 5.94777 16.419 6.18671L17.217 8.96775H13.8749V5.35484ZM16.9624 13.4839C17.4033 13.4839 17.8262 13.6504 18.138 13.9468C18.4497 14.2433 18.6249 14.6453 18.6249 15.0645C18.6249 15.4837 18.4497 15.8858 18.138 16.1822C17.8262 16.4786 17.4033 16.6452 16.9624 16.6452C16.5215 16.6452 16.0986 16.4786 15.7868 16.1822C15.475 15.8858 15.2999 15.4837 15.2999 15.0645C15.2999 14.6453 15.475 14.2433 15.7868 13.9468C16.0986 13.6504 16.5215 13.4839 16.9624 13.4839ZM8.17489 15.0645C8.17489 15.4837 7.99974 15.8858 7.68796 16.1822C7.37618 16.4786 6.95332 16.6452 6.51239 16.6452C6.07147 16.6452 5.64861 16.4786 5.33683 16.1822C5.02505 15.8858 4.84989 15.4837 4.84989 15.0645C4.84989 14.6453 5.02505 14.2433 5.33683 13.9468C5.64861 13.6504 6.07147 13.4839 6.51239 13.4839C6.95332 13.4839 7.37618 13.6504 7.68796 13.9468C7.99974 14.2433 8.17489 14.6453 8.17489 15.0645Z" fill="#3C6AB2"/>
</svg>
