<svg width="21" height="21" viewBox="0 0 21 21" fill="none" xmlns="http://www.w3.org/2000/svg">
<path fill-rule="evenodd" clip-rule="evenodd" d="M0.402713 9.88176C0.100237 7.21284 2.18809 4.875 4.87409 4.875H16.1259C18.8119 4.875 20.8997 7.21284 20.5973 9.88176L19.8323 16.6318C19.5745 18.9064 17.6501 20.625 15.3609 20.625H5.63909C3.34989 20.625 1.4255 18.9064 1.16771 16.6318L0.402713 9.88176ZM4.87409 7.125C3.53109 7.125 2.48716 8.29392 2.6384 9.62838L3.4034 16.3784C3.53229 17.5157 4.49449 18.375 5.63909 18.375H15.3609C16.5055 18.375 17.4677 17.5157 17.5966 16.3784L18.3616 9.62838C18.5128 8.29392 17.4689 7.125 16.1259 7.125H4.87409Z" fill="#B4B4B8"/>
<path fill-rule="evenodd" clip-rule="evenodd" d="M6 4.875C6 2.38972 8.01472 0.375 10.5 0.375C12.9853 0.375 15 2.38972 15 4.875V8.25C15 8.87132 14.4963 9.375 13.875 9.375C13.2537 9.375 12.75 8.87132 12.75 8.25V4.875C12.75 3.63236 11.7426 2.625 10.5 2.625C9.25736 2.625 8.25 3.63236 8.25 4.875V8.25C8.25 8.87132 7.74632 9.375 7.125 9.375C6.50368 9.375 6 8.87132 6 8.25V4.875Z" fill="#B4B4B8"/>
</svg>
