<svg width="19" height="23" viewBox="0 0 19 23" fill="none" xmlns="http://www.w3.org/2000/svg">
<path d="M6 21H9C9 22.1046 8.32843 23 7.5 23C6.67157 23 6 22.1046 6 21Z" fill="white"/>
<path fill-rule="evenodd" clip-rule="evenodd" d="M7.49996 4C6.98229 4 6.56264 4.42284 6.56264 4.94444V5.88889C6.56264 5.91509 6.5637 5.94105 6.56578 5.96672C3.9044 6.41506 1.87606 8.74664 1.87606 11.5556V13.4042C1.87606 13.8109 1.72992 14.204 1.46465 14.5106L0.860597 15.2089C-1.09543 17.4699 0.498334 21 3.47518 21H11.5248C14.5017 21 16.0954 17.4699 14.1394 15.2089L13.5354 14.5106C13.2701 14.204 13.1239 13.8109 13.1239 13.4042V11.5556C13.1239 8.74661 11.0956 6.41501 8.43415 5.9667C8.43623 5.94104 8.43729 5.91509 8.43729 5.88889V4.94444C8.43729 4.42284 8.01763 4 7.49996 4ZM3.75071 11.5556C3.75071 9.46915 5.42933 7.77778 7.5 7.77778C9.57068 7.77778 11.2493 9.46915 11.2493 11.5556V13.4042C11.2493 14.2673 11.5594 15.1012 12.1222 15.7518L12.7263 16.45C13.6251 17.489 12.8927 19.1111 11.5248 19.1111H3.47518C2.10728 19.1111 1.37493 17.489 2.27375 16.45L2.8778 15.7518C3.44063 15.1012 3.75071 14.2673 3.75071 13.4042V11.5556Z" fill="white"/>
<rect x="9.18421" y="1.18421" width="8.63158" height="8.63158" rx="4.31579" fill="#2890CF"/>
<rect x="9.18421" y="1.18421" width="8.63158" height="8.63158" rx="4.31579" stroke="white" stroke-width="1.63158"/>
<path d="M13.4568 7.04C13.2621 7.04 13.0754 7.012 12.8968 6.956C12.7181 6.89733 12.5714 6.81733 12.4568 6.716L12.6248 6.328C12.7501 6.424 12.8794 6.49467 13.0128 6.54C13.1488 6.58533 13.2914 6.608 13.4408 6.608C13.6221 6.608 13.7594 6.572 13.8528 6.5C13.9461 6.428 13.9928 6.32267 13.9928 6.184C13.9928 6.05067 13.9461 5.95067 13.8528 5.884C13.7621 5.81467 13.6288 5.78 13.4528 5.78H12.9968V5.368H13.4088C13.5608 5.368 13.6821 5.33067 13.7728 5.256C13.8634 5.18133 13.9088 5.07867 13.9088 4.948C13.9088 4.82533 13.8661 4.732 13.7808 4.668C13.6981 4.604 13.5781 4.572 13.4208 4.572C13.1381 4.572 12.8888 4.668 12.6728 4.86L12.5048 4.476C12.6194 4.36933 12.7608 4.28667 12.9288 4.228C13.0994 4.16933 13.2781 4.14 13.4648 4.14C13.7581 4.14 13.9874 4.20667 14.1528 4.34C14.3208 4.47067 14.4048 4.65333 14.4048 4.888C14.4048 5.056 14.3568 5.20133 14.2608 5.324C14.1674 5.444 14.0381 5.524 13.8728 5.564V5.516C14.0674 5.548 14.2181 5.628 14.3248 5.756C14.4341 5.88133 14.4888 6.03867 14.4888 6.228C14.4888 6.47867 14.3968 6.67733 14.2128 6.824C14.0288 6.968 13.7768 7.04 13.4568 7.04Z" fill="white"/>
</svg>
