<svg width="21" height="21" viewBox="0 0 21 21" fill="none" xmlns="http://www.w3.org/2000/svg">
<path d="M10.5124 2.62357C5.70162 2.62357 1.76237 6.12444 1.76237 10.4986C1.76237 11.9187 2.18587 13.2942 2.96549 14.4903C3.08974 14.6819 3.19825 15.1151 3.12913 15.5298C3.05913 15.9586 2.83511 16.3777 2.39149 16.6236C2.25324 16.7006 1.76674 16.9141 1.76237 17.4986C1.75799 18.0831 2.26199 18.3709 2.63737 18.3736C3.52549 18.3806 8.98375 18.3736 10.5124 18.3736C15.3231 18.3736 19.2624 14.8727 19.2624 10.4986C19.2624 6.12444 15.3231 2.62357 10.5124 2.62357ZM10.5124 4.37356C14.4 4.37356 17.5124 7.14031 17.5124 10.4986C17.5124 13.8568 14.4 16.6236 10.5124 16.6236C9.35038 16.6236 6.68337 16.6236 4.60612 16.6236C5.00774 15.7897 4.978 14.4658 4.4145 13.5339C3.84925 12.5977 3.51237 11.5739 3.51237 10.4986C3.51237 7.14031 6.62475 4.37356 10.5124 4.37356Z" fill="white"/>
</svg>
