<svg width="30" height="30" viewBox="0 0 30 30" fill="none" xmlns="http://www.w3.org/2000/svg">
<path fill-rule="evenodd" clip-rule="evenodd" d="M15 25C20.5228 25 25 20.5228 25 15C25 9.47715 20.5228 5 15 5C9.47715 5 5 9.47715 5 15C5 20.5228 9.47715 25 15 25ZM15 27.5C21.9036 27.5 27.5 21.9036 27.5 15C27.5 8.09644 21.9036 2.5 15 2.5C8.09644 2.5 2.5 8.09644 2.5 15C2.5 21.9036 8.09644 27.5 15 27.5Z" fill="#3C6AB2"/>
<path d="M15 7.5C15.6904 7.5 16.25 8.05964 16.25 8.75V11.7276L20.559 13.8821C21.1765 14.1908 21.4267 14.9417 21.118 15.5592C20.8093 16.1766 20.0584 16.4269 19.441 16.1182L16.25 14.5227V17.9776L18.059 18.8821C18.6765 19.1908 18.9267 19.9417 18.618 20.5592C18.3093 21.1766 17.5584 21.4269 16.941 21.1182L15 20.1477L13.059 21.1182C12.4415 21.4269 11.6907 21.1766 11.3819 20.5592C11.0732 19.9417 11.3235 19.1908 11.941 18.8821L13.75 17.9776V14.5227L10.559 16.1182C9.94151 16.4269 9.19067 16.1766 8.88193 15.5592C8.5732 14.9417 8.82348 14.1908 9.44095 13.8821L13.75 11.7276V8.75C13.75 8.05964 14.3096 7.5 15 7.5Z" fill="#3C6AB2"/>
</svg>
