<svg width="31" height="31" viewBox="0 0 31 31" fill="none" xmlns="http://www.w3.org/2000/svg">
<path d="M8 18.875C8 18.1846 8.55964 17.625 9.25 17.625H14.25C14.9404 17.625 15.5 18.1846 15.5 18.875V18.875C15.5 19.5654 14.9404 20.125 14.25 20.125H9.25C8.55964 20.125 8 19.5654 8 18.875V18.875Z" fill="url(#paint0_linear_2306_48)"/>
<path d="M3 11.375H28V13.875H3V11.375Z" fill="url(#paint1_linear_2306_48)"/>
<path fill-rule="evenodd" clip-rule="evenodd" d="M10.1984 5.125H20.8016C21.8078 5.12498 22.6383 5.12497 23.3148 5.18024C24.0174 5.23765 24.6633 5.36086 25.27 5.66997C26.2108 6.14934 26.9757 6.91424 27.455 7.85505C27.7641 8.46172 27.8874 9.1076 27.9448 9.81022C28 10.4867 28 11.3171 28 12.3233V15.125C28 15.8154 27.4404 16.375 26.75 16.375C26.0596 16.375 25.5 15.8154 25.5 15.125V12.375C25.5 11.3043 25.499 10.5764 25.4531 10.0138C25.4083 9.46578 25.3271 9.18552 25.2275 8.99003C24.9878 8.51962 24.6054 8.13717 24.135 7.89748C23.9395 7.79787 23.6592 7.71672 23.1112 7.67194C22.5486 7.62597 21.8207 7.625 20.75 7.625H10.25C9.17928 7.625 8.45141 7.62597 7.8888 7.67194C7.34078 7.71672 7.06052 7.79787 6.86503 7.89748C6.39462 8.13717 6.01217 8.51962 5.77248 8.99003C5.67287 9.18552 5.59172 9.46578 5.54694 10.0138C5.50097 10.5764 5.5 11.3043 5.5 12.375V17.875C5.5 18.9457 5.50097 19.6736 5.54694 20.2362C5.59172 20.7842 5.67287 21.0645 5.77248 21.26C6.01217 21.7304 6.39462 22.1128 6.86503 22.3525C7.06052 22.4521 7.34078 22.5333 7.8888 22.5781C8.45141 22.624 9.17928 22.625 10.25 22.625H15.5C16.1904 22.625 16.75 23.1846 16.75 23.875C16.75 24.5654 16.1904 25.125 15.5 25.125H10.1984C9.19218 25.125 8.36172 25.125 7.68522 25.0698C6.9826 25.0124 6.33672 24.8891 5.73005 24.58C4.78924 24.1007 4.02434 23.3358 3.54497 22.395C3.23586 21.7883 3.11265 21.1424 3.05524 20.4398C2.99997 19.7633 2.99998 18.9328 3 17.9266V12.3234C2.99998 11.3172 2.99997 10.4867 3.05524 9.81022C3.11265 9.1076 3.23585 8.46172 3.54497 7.85505C4.02434 6.91424 4.78924 6.14934 5.73005 5.66997C6.33672 5.36086 6.9826 5.23765 7.68522 5.18024C8.36171 5.12497 9.19216 5.12498 10.1984 5.125Z" fill="url(#paint2_linear_2306_48)"/>
<path fill-rule="evenodd" clip-rule="evenodd" d="M20.0832 23.8749C20.0832 21.5737 21.9487 19.7082 24.2499 19.7082C26.5511 19.7082 28.4165 21.5737 28.4165 23.8749C28.4165 24.0022 28.4143 24.4483 28.2805 24.8495C28.2145 25.0475 28.1283 25.1972 28.0282 25.2928C27.9406 25.3765 27.8248 25.4374 27.6353 25.4374C27.425 25.4374 27.3238 25.3797 27.2548 25.3092C27.1682 25.2206 27.0755 25.0515 27.0038 24.736C26.8573 24.0911 26.854 23.1213 26.854 21.7916C26.854 21.5039 26.6208 21.2707 26.3332 21.2707C26.0456 21.2707 25.8125 21.5038 25.8124 21.7914C25.3771 21.4645 24.8361 21.2707 24.2499 21.2707C22.8116 21.2707 21.6457 22.4367 21.6457 23.8749C21.6457 25.3131 22.8116 26.4791 24.2499 26.4791C25.0278 26.4791 25.7261 26.138 26.2033 25.5971C26.2836 25.759 26.3838 25.9084 26.5102 26.0376C26.8074 26.3415 27.1945 26.4791 27.6353 26.4791C28.0968 26.4791 28.4693 26.3121 28.7479 26.0459C29.014 25.7916 29.1719 25.4692 29.2687 25.1789C29.4583 24.6101 29.4582 24.0214 29.4582 23.8795V23.8749C29.4582 20.9984 27.1263 18.6666 24.2499 18.6666C21.3734 18.6666 19.0415 20.9984 19.0415 23.8749C19.0415 26.7514 21.3734 29.0832 24.2499 29.0832C25.0804 29.0832 25.867 28.8884 26.565 28.5416C26.8226 28.4136 26.9276 28.101 26.7996 27.8434C26.6716 27.5858 26.359 27.4807 26.1014 27.6087C25.5442 27.8856 24.916 28.0416 24.2499 28.0416C21.9487 28.0416 20.0832 26.1761 20.0832 23.8749ZM25.8124 23.8749C25.8124 24.7379 25.1128 25.4374 24.2499 25.4374C23.3869 25.4374 22.6874 24.7379 22.6874 23.8749C22.6874 23.012 23.3869 22.3124 24.2499 22.3124C25.1128 22.3124 25.8124 23.012 25.8124 23.8749Z" fill="url(#paint3_linear_2306_48)" stroke="url(#paint4_linear_2306_48)" stroke-width="0.5" stroke-linecap="round"/>
<defs>
<linearGradient id="paint0_linear_2306_48" x1="11.75" y1="17.625" x2="11.75" y2="20.125" gradientUnits="userSpaceOnUse">
<stop stop-color="#346CBD"/>
</linearGradient>
<linearGradient id="paint1_linear_2306_48" x1="15.5" y1="11.375" x2="15.5" y2="13.875" gradientUnits="userSpaceOnUse">
<stop stop-color="#346CBD"/>
</linearGradient>
<linearGradient id="paint2_linear_2306_48" x1="15.5" y1="5.125" x2="15.5" y2="25.125" gradientUnits="userSpaceOnUse">
<stop stop-color="#346CBD"/>
</linearGradient>
<linearGradient id="paint3_linear_2306_48" x1="24.2499" y1="18.6666" x2="24.2499" y2="29.0832" gradientUnits="userSpaceOnUse">
<stop stop-color="#346CBD"/>
</linearGradient>
<linearGradient id="paint4_linear_2306_48" x1="24.2499" y1="18.6666" x2="24.2499" y2="29.0832" gradientUnits="userSpaceOnUse">
<stop stop-color="#346CBD"/>
</linearGradient>
</defs>
</svg>
